<?xml version="1.0" encoding="UTF-8" standalone="no"?>
<svg xmlns="http://www.w3.org/2000/svg" xmlns:xlink="http://www.w3.org/1999/xlink" contentStyleType="text/css" height="602px" preserveAspectRatio="none" style="width:936px;height:602px;background:#FFFFFF;" version="1.1" viewBox="0 0 936 602" width="936px" zoomAndPan="magnify"><defs/><g><!--MD5=[d6443aa840973661d856ebb400245d1f]
cluster clauses--><g id="cluster_clauses"><rect height="315" rx="2.5" ry="2.5" style="stroke:#181818;stroke-width:1.0;fill:none;" width="227" x="703.5" y="188"/><text fill="#000000" font-family="sans-serif" font-size="14" font-weight="bold" lengthAdjust="spacing" textLength="61" x="786.5" y="202.9951">clauses</text></g><!--MD5=[3d9a9201f4e3c24a3b32edb25b35db95]
class Clause--><g id="elem_Clause"><rect codeLine="52" fill="#F1F1F1" height="48" id="Clause" rx="2.5" ry="2.5" style="stroke:#181818;stroke-width:0.5;" width="80" x="720.5" y="223"/><ellipse cx="735.5" cy="239" fill="#B4A7E5" rx="11" ry="11" style="stroke:#181818;stroke-width:1.0;"/><path d="M736.4531,235.7813 L738.1719,235.7813 C738.5625,235.7813 738.75,235.75 738.875,235.6719 C739.1406,235.5156 739.2813,235.2344 739.2813,234.9375 C739.2813,234.6719 739.1719,234.4063 738.9375,234.2344 C738.7656,234.125 738.625,234.0938 738.1719,234.0938 L733.0313,234.0938 C732.5938,234.0938 732.4688,234.1094 732.3125,234.2031 C732.0625,234.3594 731.9063,234.6563 731.9063,234.9375 C731.9063,235.2188 732.0469,235.4688 732.2656,235.6406 C732.4219,235.75 732.6094,235.7813 733.0313,235.7813 L734.75,235.7813 L734.75,242.2969 L733.0313,242.2969 C732.5938,242.2969 732.4688,242.3125 732.3125,242.4219 C732.0625,242.5781 731.9063,242.8594 731.9063,243.1563 C731.9063,243.4063 732.0469,243.6719 732.2656,243.8281 C732.4219,243.9531 732.625,244 733.0313,244 L738.1719,244 C738.9219,244 739.2813,243.7188 739.2813,243.1563 C739.2813,242.875 739.1719,242.625 738.9375,242.4531 C738.7656,242.3281 738.625,242.2969 738.1719,242.2969 L736.4531,242.2969 L736.4531,235.7813 Z " fill="#000000"/><text fill="#000000" font-family="sans-serif" font-size="14" font-style="italic" lengthAdjust="spacing" textLength="48" x="749.5" y="243.8467">Clause</text><line style="stroke:#181818;stroke-width:0.5;" x1="721.5" x2="799.5" y1="255" y2="255"/><line style="stroke:#181818;stroke-width:0.5;" x1="721.5" x2="799.5" y1="263" y2="263"/></g><!--MD5=[4cf87534c235239d37db4adfd136fff4]
class Rule--><g id="elem_Rule"><rect codeLine="53" fill="#F1F1F1" height="48" id="Rule" rx="2.5" ry="2.5" style="stroke:#181818;stroke-width:0.5;" width="64" x="719.5" y="331"/><ellipse cx="734.5" cy="347" fill="#B4A7E5" rx="11" ry="11" style="stroke:#181818;stroke-width:1.0;"/><path d="M735.4531,343.7813 L737.1719,343.7813 C737.5625,343.7813 737.75,343.75 737.875,343.6719 C738.1406,343.5156 738.2813,343.2344 738.2813,342.9375 C738.2813,342.6719 738.1719,342.4063 737.9375,342.2344 C737.7656,342.125 737.625,342.0938 737.1719,342.0938 L732.0313,342.0938 C731.5938,342.0938 731.4688,342.1094 731.3125,342.2031 C731.0625,342.3594 730.9063,342.6563 730.9063,342.9375 C730.9063,343.2188 731.0469,343.4688 731.2656,343.6406 C731.4219,343.75 731.6094,343.7813 732.0313,343.7813 L733.75,343.7813 L733.75,350.2969 L732.0313,350.2969 C731.5938,350.2969 731.4688,350.3125 731.3125,350.4219 C731.0625,350.5781 730.9063,350.8594 730.9063,351.1563 C730.9063,351.4063 731.0469,351.6719 731.2656,351.8281 C731.4219,351.9531 731.625,352 732.0313,352 L737.1719,352 C737.9219,352 738.2813,351.7188 738.2813,351.1563 C738.2813,350.875 738.1719,350.625 737.9375,350.4531 C737.7656,350.3281 737.625,350.2969 737.1719,350.2969 L735.4531,350.2969 L735.4531,343.7813 Z " fill="#000000"/><text fill="#000000" font-family="sans-serif" font-size="14" font-style="italic" lengthAdjust="spacing" textLength="32" x="748.5" y="351.8467">Rule</text><line style="stroke:#181818;stroke-width:0.5;" x1="720.5" x2="782.5" y1="363" y2="363"/><line style="stroke:#181818;stroke-width:0.5;" x1="720.5" x2="782.5" y1="371" y2="371"/></g><!--MD5=[326c2f491a5c94a5eb0f952bc2efd709]
class Directive--><g id="elem_Directive"><rect codeLine="54" fill="#F1F1F1" height="48" id="Directive" rx="2.5" ry="2.5" style="stroke:#181818;stroke-width:0.5;" width="96" x="818.5" y="331"/><ellipse cx="833.5" cy="347" fill="#B4A7E5" rx="11" ry="11" style="stroke:#181818;stroke-width:1.0;"/><path d="M834.4531,343.7813 L836.1719,343.7813 C836.5625,343.7813 836.75,343.75 836.875,343.6719 C837.1406,343.5156 837.2813,343.2344 837.2813,342.9375 C837.2813,342.6719 837.1719,342.4063 836.9375,342.2344 C836.7656,342.125 836.625,342.0938 836.1719,342.0938 L831.0313,342.0938 C830.5938,342.0938 830.4688,342.1094 830.3125,342.2031 C830.0625,342.3594 829.9063,342.6563 829.9063,342.9375 C829.9063,343.2188 830.0469,343.4688 830.2656,343.6406 C830.4219,343.75 830.6094,343.7813 831.0313,343.7813 L832.75,343.7813 L832.75,350.2969 L831.0313,350.2969 C830.5938,350.2969 830.4688,350.3125 830.3125,350.4219 C830.0625,350.5781 829.9063,350.8594 829.9063,351.1563 C829.9063,351.4063 830.0469,351.6719 830.2656,351.8281 C830.4219,351.9531 830.625,352 831.0313,352 L836.1719,352 C836.9219,352 837.2813,351.7188 837.2813,351.1563 C837.2813,350.875 837.1719,350.625 836.9375,350.4531 C836.7656,350.3281 836.625,350.2969 836.1719,350.2969 L834.4531,350.2969 L834.4531,343.7813 Z " fill="#000000"/><text fill="#000000" font-family="sans-serif" font-size="14" font-style="italic" lengthAdjust="spacing" textLength="64" x="847.5" y="351.8467">Directive</text><line style="stroke:#181818;stroke-width:0.5;" x1="819.5" x2="913.5" y1="363" y2="363"/><line style="stroke:#181818;stroke-width:0.5;" x1="819.5" x2="913.5" y1="371" y2="371"/></g><!--MD5=[8b7b02036613c263e1d0ae582a50c9f5]
class Fact--><g id="elem_Fact"><rect codeLine="55" fill="#F1F1F1" height="48" id="Fact" rx="2.5" ry="2.5" style="stroke:#181818;stroke-width:0.5;" width="62" x="720.5" y="439"/><ellipse cx="735.5" cy="455" fill="#B4A7E5" rx="11" ry="11" style="stroke:#181818;stroke-width:1.0;"/><path d="M736.4531,451.7813 L738.1719,451.7813 C738.5625,451.7813 738.75,451.75 738.875,451.6719 C739.1406,451.5156 739.2813,451.2344 739.2813,450.9375 C739.2813,450.6719 739.1719,450.4063 738.9375,450.2344 C738.7656,450.125 738.625,450.0938 738.1719,450.0938 L733.0313,450.0938 C732.5938,450.0938 732.4688,450.1094 732.3125,450.2031 C732.0625,450.3594 731.9063,450.6563 731.9063,450.9375 C731.9063,451.2188 732.0469,451.4688 732.2656,451.6406 C732.4219,451.75 732.6094,451.7813 733.0313,451.7813 L734.75,451.7813 L734.75,458.2969 L733.0313,458.2969 C732.5938,458.2969 732.4688,458.3125 732.3125,458.4219 C732.0625,458.5781 731.9063,458.8594 731.9063,459.1563 C731.9063,459.4063 732.0469,459.6719 732.2656,459.8281 C732.4219,459.9531 732.625,460 733.0313,460 L738.1719,460 C738.9219,460 739.2813,459.7188 739.2813,459.1563 C739.2813,458.875 739.1719,458.625 738.9375,458.4531 C738.7656,458.3281 738.625,458.2969 738.1719,458.2969 L736.4531,458.2969 L736.4531,451.7813 Z " fill="#000000"/><text fill="#000000" font-family="sans-serif" font-size="14" font-style="italic" lengthAdjust="spacing" textLength="30" x="749.5" y="459.8467">Fact</text><line style="stroke:#181818;stroke-width:0.5;" x1="721.5" x2="781.5" y1="471" y2="471"/><line style="stroke:#181818;stroke-width:0.5;" x1="721.5" x2="781.5" y1="479" y2="479"/></g><!--MD5=[9d35236b92952560f647498cf8a29acb]
class Term--><g id="elem_Term"><rect codeLine="3" fill="#F1F1F1" height="48" id="Term" rx="2.5" ry="2.5" style="stroke:#181818;stroke-width:0.5;" width="70" x="379.5" y="7"/><ellipse cx="394.5" cy="23" fill="#B4A7E5" rx="11" ry="11" style="stroke:#181818;stroke-width:1.0;"/><path d="M395.4531,19.7813 L397.1719,19.7813 C397.5625,19.7813 397.75,19.75 397.875,19.6719 C398.1406,19.5156 398.2813,19.2344 398.2813,18.9375 C398.2813,18.6719 398.1719,18.4063 397.9375,18.2344 C397.7656,18.125 397.625,18.0938 397.1719,18.0938 L392.0313,18.0938 C391.5938,18.0938 391.4688,18.1094 391.3125,18.2031 C391.0625,18.3594 390.9063,18.6563 390.9063,18.9375 C390.9063,19.2188 391.0469,19.4688 391.2656,19.6406 C391.4219,19.75 391.6094,19.7813 392.0313,19.7813 L393.75,19.7813 L393.75,26.2969 L392.0313,26.2969 C391.5938,26.2969 391.4688,26.3125 391.3125,26.4219 C391.0625,26.5781 390.9063,26.8594 390.9063,27.1563 C390.9063,27.4063 391.0469,27.6719 391.2656,27.8281 C391.4219,27.9531 391.625,28 392.0313,28 L397.1719,28 C397.9219,28 398.2813,27.7188 398.2813,27.1563 C398.2813,26.875 398.1719,26.625 397.9375,26.4531 C397.7656,26.3281 397.625,26.2969 397.1719,26.2969 L395.4531,26.2969 L395.4531,19.7813 Z " fill="#000000"/><text fill="#000000" font-family="sans-serif" font-size="14" font-style="italic" lengthAdjust="spacing" textLength="38" x="408.5" y="27.8467">Term</text><line style="stroke:#181818;stroke-width:0.5;" x1="380.5" x2="448.5" y1="39" y2="39"/><line style="stroke:#181818;stroke-width:0.5;" x1="380.5" x2="448.5" y1="47" y2="47"/></g><!--MD5=[54b85b6d1a687c59d530998eb343c279]
class Constant--><g id="elem_Constant"><rect codeLine="4" fill="#F1F1F1" height="48" id="Constant" rx="2.5" ry="2.5" style="stroke:#181818;stroke-width:0.5;" width="95" x="256" y="115"/><ellipse cx="271" cy="131" fill="#B4A7E5" rx="11" ry="11" style="stroke:#181818;stroke-width:1.0;"/><path d="M271.9531,127.7813 L273.6719,127.7813 C274.0625,127.7813 274.25,127.75 274.375,127.6719 C274.6406,127.5156 274.7813,127.2344 274.7813,126.9375 C274.7813,126.6719 274.6719,126.4063 274.4375,126.2344 C274.2656,126.125 274.125,126.0938 273.6719,126.0938 L268.5313,126.0938 C268.0938,126.0938 267.9688,126.1094 267.8125,126.2031 C267.5625,126.3594 267.4063,126.6563 267.4063,126.9375 C267.4063,127.2188 267.5469,127.4688 267.7656,127.6406 C267.9219,127.75 268.1094,127.7813 268.5313,127.7813 L270.25,127.7813 L270.25,134.2969 L268.5313,134.2969 C268.0938,134.2969 267.9688,134.3125 267.8125,134.4219 C267.5625,134.5781 267.4063,134.8594 267.4063,135.1563 C267.4063,135.4063 267.5469,135.6719 267.7656,135.8281 C267.9219,135.9531 268.125,136 268.5313,136 L273.6719,136 C274.4219,136 274.7813,135.7188 274.7813,135.1563 C274.7813,134.875 274.6719,134.625 274.4375,134.4531 C274.2656,134.3281 274.125,134.2969 273.6719,134.2969 L271.9531,134.2969 L271.9531,127.7813 Z " fill="#000000"/><text fill="#000000" font-family="sans-serif" font-size="14" font-style="italic" lengthAdjust="spacing" textLength="63" x="285" y="135.8467">Constant</text><line style="stroke:#181818;stroke-width:0.5;" x1="257" x2="350" y1="147" y2="147"/><line style="stroke:#181818;stroke-width:0.5;" x1="257" x2="350" y1="155" y2="155"/></g><!--MD5=[731225e2007e13f9ac67fff186258580]
class Var--><g id="elem_Var"><rect codeLine="5" fill="#F1F1F1" height="48" id="Var" rx="2.5" ry="2.5" style="stroke:#181818;stroke-width:0.5;" width="57" x="386" y="115"/><ellipse cx="401" cy="131" fill="#B4A7E5" rx="11" ry="11" style="stroke:#181818;stroke-width:1.0;"/><path d="M401.9531,127.7813 L403.6719,127.7813 C404.0625,127.7813 404.25,127.75 404.375,127.6719 C404.6406,127.5156 404.7813,127.2344 404.7813,126.9375 C404.7813,126.6719 404.6719,126.4063 404.4375,126.2344 C404.2656,126.125 404.125,126.0938 403.6719,126.0938 L398.5313,126.0938 C398.0938,126.0938 397.9688,126.1094 397.8125,126.2031 C397.5625,126.3594 397.4063,126.6563 397.4063,126.9375 C397.4063,127.2188 397.5469,127.4688 397.7656,127.6406 C397.9219,127.75 398.1094,127.7813 398.5313,127.7813 L400.25,127.7813 L400.25,134.2969 L398.5313,134.2969 C398.0938,134.2969 397.9688,134.3125 397.8125,134.4219 C397.5625,134.5781 397.4063,134.8594 397.4063,135.1563 C397.4063,135.4063 397.5469,135.6719 397.7656,135.8281 C397.9219,135.9531 398.125,136 398.5313,136 L403.6719,136 C404.4219,136 404.7813,135.7188 404.7813,135.1563 C404.7813,134.875 404.6719,134.625 404.4375,134.4531 C404.2656,134.3281 404.125,134.2969 403.6719,134.2969 L401.9531,134.2969 L401.9531,127.7813 Z " fill="#000000"/><text fill="#000000" font-family="sans-serif" font-size="14" font-style="italic" lengthAdjust="spacing" textLength="25" x="415" y="135.8467">Var</text><line style="stroke:#181818;stroke-width:0.5;" x1="387" x2="442" y1="147" y2="147"/><line style="stroke:#181818;stroke-width:0.5;" x1="387" x2="442" y1="155" y2="155"/></g><!--MD5=[eb0f4986160aea42d9ece72995cb24c7]
class Struct--><g id="elem_Struct"><rect codeLine="6" fill="#F1F1F1" height="48" id="Struct" rx="2.5" ry="2.5" style="stroke:#181818;stroke-width:0.5;" width="74" x="478.5" y="115"/><ellipse cx="493.5" cy="131" fill="#B4A7E5" rx="11" ry="11" style="stroke:#181818;stroke-width:1.0;"/><path d="M494.4531,127.7813 L496.1719,127.7813 C496.5625,127.7813 496.75,127.75 496.875,127.6719 C497.1406,127.5156 497.2813,127.2344 497.2813,126.9375 C497.2813,126.6719 497.1719,126.4063 496.9375,126.2344 C496.7656,126.125 496.625,126.0938 496.1719,126.0938 L491.0313,126.0938 C490.5938,126.0938 490.4688,126.1094 490.3125,126.2031 C490.0625,126.3594 489.9063,126.6563 489.9063,126.9375 C489.9063,127.2188 490.0469,127.4688 490.2656,127.6406 C490.4219,127.75 490.6094,127.7813 491.0313,127.7813 L492.75,127.7813 L492.75,134.2969 L491.0313,134.2969 C490.5938,134.2969 490.4688,134.3125 490.3125,134.4219 C490.0625,134.5781 489.9063,134.8594 489.9063,135.1563 C489.9063,135.4063 490.0469,135.6719 490.2656,135.8281 C490.4219,135.9531 490.625,136 491.0313,136 L496.1719,136 C496.9219,136 497.2813,135.7188 497.2813,135.1563 C497.2813,134.875 497.1719,134.625 496.9375,134.4531 C496.7656,134.3281 496.625,134.2969 496.1719,134.2969 L494.4531,134.2969 L494.4531,127.7813 Z " fill="#000000"/><text fill="#000000" font-family="sans-serif" font-size="14" font-style="italic" lengthAdjust="spacing" textLength="42" x="507.5" y="135.8467">Struct</text><line style="stroke:#181818;stroke-width:0.5;" x1="479.5" x2="551.5" y1="147" y2="147"/><line style="stroke:#181818;stroke-width:0.5;" x1="479.5" x2="551.5" y1="155" y2="155"/></g><!--MD5=[f1926c784da000dbf2f9e262c4c094a8]
class Numeric--><g id="elem_Numeric"><rect codeLine="7" fill="#F1F1F1" height="48" id="Numeric" rx="2.5" ry="2.5" style="stroke:#181818;stroke-width:0.5;" width="92" x="111.5" y="223"/><ellipse cx="126.5" cy="239" fill="#B4A7E5" rx="11" ry="11" style="stroke:#181818;stroke-width:1.0;"/><path d="M127.4531,235.7813 L129.1719,235.7813 C129.5625,235.7813 129.75,235.75 129.875,235.6719 C130.1406,235.5156 130.2813,235.2344 130.2813,234.9375 C130.2813,234.6719 130.1719,234.4063 129.9375,234.2344 C129.7656,234.125 129.625,234.0938 129.1719,234.0938 L124.0313,234.0938 C123.5938,234.0938 123.4688,234.1094 123.3125,234.2031 C123.0625,234.3594 122.9063,234.6563 122.9063,234.9375 C122.9063,235.2188 123.0469,235.4688 123.2656,235.6406 C123.4219,235.75 123.6094,235.7813 124.0313,235.7813 L125.75,235.7813 L125.75,242.2969 L124.0313,242.2969 C123.5938,242.2969 123.4688,242.3125 123.3125,242.4219 C123.0625,242.5781 122.9063,242.8594 122.9063,243.1563 C122.9063,243.4063 123.0469,243.6719 123.2656,243.8281 C123.4219,243.9531 123.625,244 124.0313,244 L129.1719,244 C129.9219,244 130.2813,243.7188 130.2813,243.1563 C130.2813,242.875 130.1719,242.625 129.9375,242.4531 C129.7656,242.3281 129.625,242.2969 129.1719,242.2969 L127.4531,242.2969 L127.4531,235.7813 Z " fill="#000000"/><text fill="#000000" font-family="sans-serif" font-size="14" font-style="italic" lengthAdjust="spacing" textLength="60" x="140.5" y="243.8467">Numeric</text><line style="stroke:#181818;stroke-width:0.5;" x1="112.5" x2="202.5" y1="255" y2="255"/><line style="stroke:#181818;stroke-width:0.5;" x1="112.5" x2="202.5" y1="263" y2="263"/></g><!--MD5=[ee42c820cde073a9007f0905fabb17c1]
class Integer--><g id="elem_Integer"><rect codeLine="8" fill="#F1F1F1" height="48" id="Integer" rx="2.5" ry="2.5" style="stroke:#181818;stroke-width:0.5;" width="83" x="7" y="331"/><ellipse cx="22" cy="347" fill="#B4A7E5" rx="11" ry="11" style="stroke:#181818;stroke-width:1.0;"/><path d="M22.9531,343.7813 L24.6719,343.7813 C25.0625,343.7813 25.25,343.75 25.375,343.6719 C25.6406,343.5156 25.7813,343.2344 25.7813,342.9375 C25.7813,342.6719 25.6719,342.4063 25.4375,342.2344 C25.2656,342.125 25.125,342.0938 24.6719,342.0938 L19.5313,342.0938 C19.0938,342.0938 18.9688,342.1094 18.8125,342.2031 C18.5625,342.3594 18.4063,342.6563 18.4063,342.9375 C18.4063,343.2188 18.5469,343.4688 18.7656,343.6406 C18.9219,343.75 19.1094,343.7813 19.5313,343.7813 L21.25,343.7813 L21.25,350.2969 L19.5313,350.2969 C19.0938,350.2969 18.9688,350.3125 18.8125,350.4219 C18.5625,350.5781 18.4063,350.8594 18.4063,351.1563 C18.4063,351.4063 18.5469,351.6719 18.7656,351.8281 C18.9219,351.9531 19.125,352 19.5313,352 L24.6719,352 C25.4219,352 25.7813,351.7188 25.7813,351.1563 C25.7813,350.875 25.6719,350.625 25.4375,350.4531 C25.2656,350.3281 25.125,350.2969 24.6719,350.2969 L22.9531,350.2969 L22.9531,343.7813 Z " fill="#000000"/><text fill="#000000" font-family="sans-serif" font-size="14" font-style="italic" lengthAdjust="spacing" textLength="51" x="36" y="351.8467">Integer</text><line style="stroke:#181818;stroke-width:0.5;" x1="8" x2="89" y1="363" y2="363"/><line style="stroke:#181818;stroke-width:0.5;" x1="8" x2="89" y1="371" y2="371"/></g><!--MD5=[5fd72fda0f3f342d877047943977dc6a]
class Real--><g id="elem_Real"><rect codeLine="9" fill="#F1F1F1" height="48" id="Real" rx="2.5" ry="2.5" style="stroke:#181818;stroke-width:0.5;" width="64" x="125.5" y="331"/><ellipse cx="140.5" cy="347" fill="#B4A7E5" rx="11" ry="11" style="stroke:#181818;stroke-width:1.0;"/><path d="M141.4531,343.7813 L143.1719,343.7813 C143.5625,343.7813 143.75,343.75 143.875,343.6719 C144.1406,343.5156 144.2813,343.2344 144.2813,342.9375 C144.2813,342.6719 144.1719,342.4063 143.9375,342.2344 C143.7656,342.125 143.625,342.0938 143.1719,342.0938 L138.0313,342.0938 C137.5938,342.0938 137.4688,342.1094 137.3125,342.2031 C137.0625,342.3594 136.9063,342.6563 136.9063,342.9375 C136.9063,343.2188 137.0469,343.4688 137.2656,343.6406 C137.4219,343.75 137.6094,343.7813 138.0313,343.7813 L139.75,343.7813 L139.75,350.2969 L138.0313,350.2969 C137.5938,350.2969 137.4688,350.3125 137.3125,350.4219 C137.0625,350.5781 136.9063,350.8594 136.9063,351.1563 C136.9063,351.4063 137.0469,351.6719 137.2656,351.8281 C137.4219,351.9531 137.625,352 138.0313,352 L143.1719,352 C143.9219,352 144.2813,351.7188 144.2813,351.1563 C144.2813,350.875 144.1719,350.625 143.9375,350.4531 C143.7656,350.3281 143.625,350.2969 143.1719,350.2969 L141.4531,350.2969 L141.4531,343.7813 Z " fill="#000000"/><text fill="#000000" font-family="sans-serif" font-size="14" font-style="italic" lengthAdjust="spacing" textLength="32" x="154.5" y="351.8467">Real</text><line style="stroke:#181818;stroke-width:0.5;" x1="126.5" x2="188.5" y1="363" y2="363"/><line style="stroke:#181818;stroke-width:0.5;" x1="126.5" x2="188.5" y1="371" y2="371"/></g><!--MD5=[f18b0f967872e82ff276115ca1b4c569]
class Atom--><g id="elem_Atom"><rect codeLine="10" fill="#F1F1F1" height="48" id="Atom" rx="2.5" ry="2.5" style="stroke:#181818;stroke-width:0.5;" width="70" x="271.5" y="223"/><ellipse cx="286.5" cy="239" fill="#B4A7E5" rx="11" ry="11" style="stroke:#181818;stroke-width:1.0;"/><path d="M287.4531,235.7813 L289.1719,235.7813 C289.5625,235.7813 289.75,235.75 289.875,235.6719 C290.1406,235.5156 290.2813,235.2344 290.2813,234.9375 C290.2813,234.6719 290.1719,234.4063 289.9375,234.2344 C289.7656,234.125 289.625,234.0938 289.1719,234.0938 L284.0313,234.0938 C283.5938,234.0938 283.4688,234.1094 283.3125,234.2031 C283.0625,234.3594 282.9063,234.6563 282.9063,234.9375 C282.9063,235.2188 283.0469,235.4688 283.2656,235.6406 C283.4219,235.75 283.6094,235.7813 284.0313,235.7813 L285.75,235.7813 L285.75,242.2969 L284.0313,242.2969 C283.5938,242.2969 283.4688,242.3125 283.3125,242.4219 C283.0625,242.5781 282.9063,242.8594 282.9063,243.1563 C282.9063,243.4063 283.0469,243.6719 283.2656,243.8281 C283.4219,243.9531 283.625,244 284.0313,244 L289.1719,244 C289.9219,244 290.2813,243.7188 290.2813,243.1563 C290.2813,242.875 290.1719,242.625 289.9375,242.4531 C289.7656,242.3281 289.625,242.2969 289.1719,242.2969 L287.4531,242.2969 L287.4531,235.7813 Z " fill="#000000"/><text fill="#000000" font-family="sans-serif" font-size="14" font-style="italic" lengthAdjust="spacing" textLength="38" x="300.5" y="243.8467">Atom</text><line style="stroke:#181818;stroke-width:0.5;" x1="272.5" x2="340.5" y1="255" y2="255"/><line style="stroke:#181818;stroke-width:0.5;" x1="272.5" x2="340.5" y1="263" y2="263"/></g><!--MD5=[de147283bee8035b23b97cb1a9ddf59d]
class Truth--><g id="elem_Truth"><rect codeLine="11" fill="#F1F1F1" height="48" id="Truth" rx="2.5" ry="2.5" style="stroke:#181818;stroke-width:0.5;" width="70" x="295.5" y="331"/><ellipse cx="310.5" cy="347" fill="#B4A7E5" rx="11" ry="11" style="stroke:#181818;stroke-width:1.0;"/><path d="M311.4531,343.7813 L313.1719,343.7813 C313.5625,343.7813 313.75,343.75 313.875,343.6719 C314.1406,343.5156 314.2813,343.2344 314.2813,342.9375 C314.2813,342.6719 314.1719,342.4063 313.9375,342.2344 C313.7656,342.125 313.625,342.0938 313.1719,342.0938 L308.0313,342.0938 C307.5938,342.0938 307.4688,342.1094 307.3125,342.2031 C307.0625,342.3594 306.9063,342.6563 306.9063,342.9375 C306.9063,343.2188 307.0469,343.4688 307.2656,343.6406 C307.4219,343.75 307.6094,343.7813 308.0313,343.7813 L309.75,343.7813 L309.75,350.2969 L308.0313,350.2969 C307.5938,350.2969 307.4688,350.3125 307.3125,350.4219 C307.0625,350.5781 306.9063,350.8594 306.9063,351.1563 C306.9063,351.4063 307.0469,351.6719 307.2656,351.8281 C307.4219,351.9531 307.625,352 308.0313,352 L313.1719,352 C313.9219,352 314.2813,351.7188 314.2813,351.1563 C314.2813,350.875 314.1719,350.625 313.9375,350.4531 C313.7656,350.3281 313.625,350.2969 313.1719,350.2969 L311.4531,350.2969 L311.4531,343.7813 Z " fill="#000000"/><text fill="#000000" font-family="sans-serif" font-size="14" font-style="italic" lengthAdjust="spacing" textLength="38" x="324.5" y="351.8467">Truth</text><line style="stroke:#181818;stroke-width:0.5;" x1="296.5" x2="364.5" y1="363" y2="363"/><line style="stroke:#181818;stroke-width:0.5;" x1="296.5" x2="364.5" y1="371" y2="371"/></g><!--MD5=[ff04013806d21ddc19c98782fe2ddc6c]
class Indicator--><g id="elem_Indicator"><rect codeLine="12" fill="#F1F1F1" height="48" id="Indicator" rx="2.5" ry="2.5" style="stroke:#181818;stroke-width:0.5;" width="95" x="590" y="223"/><ellipse cx="605" cy="239" fill="#B4A7E5" rx="11" ry="11" style="stroke:#181818;stroke-width:1.0;"/><path d="M605.9531,235.7813 L607.6719,235.7813 C608.0625,235.7813 608.25,235.75 608.375,235.6719 C608.6406,235.5156 608.7813,235.2344 608.7813,234.9375 C608.7813,234.6719 608.6719,234.4063 608.4375,234.2344 C608.2656,234.125 608.125,234.0938 607.6719,234.0938 L602.5313,234.0938 C602.0938,234.0938 601.9688,234.1094 601.8125,234.2031 C601.5625,234.3594 601.4063,234.6563 601.4063,234.9375 C601.4063,235.2188 601.5469,235.4688 601.7656,235.6406 C601.9219,235.75 602.1094,235.7813 602.5313,235.7813 L604.25,235.7813 L604.25,242.2969 L602.5313,242.2969 C602.0938,242.2969 601.9688,242.3125 601.8125,242.4219 C601.5625,242.5781 601.4063,242.8594 601.4063,243.1563 C601.4063,243.4063 601.5469,243.6719 601.7656,243.8281 C601.9219,243.9531 602.125,244 602.5313,244 L607.6719,244 C608.4219,244 608.7813,243.7188 608.7813,243.1563 C608.7813,242.875 608.6719,242.625 608.4375,242.4531 C608.2656,242.3281 608.125,242.2969 607.6719,242.2969 L605.9531,242.2969 L605.9531,235.7813 Z " fill="#000000"/><text fill="#000000" font-family="sans-serif" font-size="14" font-style="italic" lengthAdjust="spacing" textLength="63" x="619" y="243.8467">Indicator</text><line style="stroke:#181818;stroke-width:0.5;" x1="591" x2="684" y1="255" y2="255"/><line style="stroke:#181818;stroke-width:0.5;" x1="591" x2="684" y1="263" y2="263"/></g><!--MD5=[6e188d926ad014016d8bc646a38dd0b9]
class Recursive--><g id="elem_Recursive"><rect codeLine="13" fill="#F1F1F1" height="48" id="Recursive" rx="2.5" ry="2.5" style="stroke:#181818;stroke-width:0.5;" width="102" x="452.5" y="223"/><ellipse cx="467.5" cy="239" fill="#B4A7E5" rx="11" ry="11" style="stroke:#181818;stroke-width:1.0;"/><path d="M468.4531,235.7813 L470.1719,235.7813 C470.5625,235.7813 470.75,235.75 470.875,235.6719 C471.1406,235.5156 471.2813,235.2344 471.2813,234.9375 C471.2813,234.6719 471.1719,234.4063 470.9375,234.2344 C470.7656,234.125 470.625,234.0938 470.1719,234.0938 L465.0313,234.0938 C464.5938,234.0938 464.4688,234.1094 464.3125,234.2031 C464.0625,234.3594 463.9063,234.6563 463.9063,234.9375 C463.9063,235.2188 464.0469,235.4688 464.2656,235.6406 C464.4219,235.75 464.6094,235.7813 465.0313,235.7813 L466.75,235.7813 L466.75,242.2969 L465.0313,242.2969 C464.5938,242.2969 464.4688,242.3125 464.3125,242.4219 C464.0625,242.5781 463.9063,242.8594 463.9063,243.1563 C463.9063,243.4063 464.0469,243.6719 464.2656,243.8281 C464.4219,243.9531 464.625,244 465.0313,244 L470.1719,244 C470.9219,244 471.2813,243.7188 471.2813,243.1563 C471.2813,242.875 471.1719,242.625 470.9375,242.4531 C470.7656,242.3281 470.625,242.2969 470.1719,242.2969 L468.4531,242.2969 L468.4531,235.7813 Z " fill="#000000"/><text fill="#000000" font-family="sans-serif" font-size="14" font-style="italic" lengthAdjust="spacing" textLength="70" x="481.5" y="243.8467">Recursive</text><line style="stroke:#181818;stroke-width:0.5;" x1="453.5" x2="553.5" y1="255" y2="255"/><line style="stroke:#181818;stroke-width:0.5;" x1="453.5" x2="553.5" y1="263" y2="263"/></g><!--MD5=[302c72c1573bd1a597976f8c721380e9]
class Empty--><g id="elem_Empty"><rect codeLine="14" fill="#F1F1F1" height="48" id="Empty" rx="2.5" ry="2.5" style="stroke:#181818;stroke-width:0.5;" width="77" x="344" y="547"/><ellipse cx="359" cy="563" fill="#B4A7E5" rx="11" ry="11" style="stroke:#181818;stroke-width:1.0;"/><path d="M359.9531,559.7813 L361.6719,559.7813 C362.0625,559.7813 362.25,559.75 362.375,559.6719 C362.6406,559.5156 362.7813,559.2344 362.7813,558.9375 C362.7813,558.6719 362.6719,558.4063 362.4375,558.2344 C362.2656,558.125 362.125,558.0938 361.6719,558.0938 L356.5313,558.0938 C356.0938,558.0938 355.9688,558.1094 355.8125,558.2031 C355.5625,558.3594 355.4063,558.6563 355.4063,558.9375 C355.4063,559.2188 355.5469,559.4688 355.7656,559.6406 C355.9219,559.75 356.1094,559.7813 356.5313,559.7813 L358.25,559.7813 L358.25,566.2969 L356.5313,566.2969 C356.0938,566.2969 355.9688,566.3125 355.8125,566.4219 C355.5625,566.5781 355.4063,566.8594 355.4063,567.1563 C355.4063,567.4063 355.5469,567.6719 355.7656,567.8281 C355.9219,567.9531 356.125,568 356.5313,568 L361.6719,568 C362.4219,568 362.7813,567.7188 362.7813,567.1563 C362.7813,566.875 362.6719,566.625 362.4375,566.4531 C362.2656,566.3281 362.125,566.2969 361.6719,566.2969 L359.9531,566.2969 L359.9531,559.7813 Z " fill="#000000"/><text fill="#000000" font-family="sans-serif" font-size="14" font-style="italic" lengthAdjust="spacing" textLength="45" x="373" y="567.8467">Empty</text><line style="stroke:#181818;stroke-width:0.5;" x1="345" x2="420" y1="579" y2="579"/><line style="stroke:#181818;stroke-width:0.5;" x1="345" x2="420" y1="587" y2="587"/></g><!--MD5=[d417ee715df4dddb7d3ff2725fa96357]
class EmptyBlock--><g id="elem_EmptyBlock"><rect codeLine="15" fill="#F1F1F1" height="48" id="EmptyBlock" rx="2.5" ry="2.5" style="stroke:#181818;stroke-width:0.5;" width="116" x="324.5" y="439"/><ellipse cx="339.5" cy="455" fill="#B4A7E5" rx="11" ry="11" style="stroke:#181818;stroke-width:1.0;"/><path d="M340.4531,451.7813 L342.1719,451.7813 C342.5625,451.7813 342.75,451.75 342.875,451.6719 C343.1406,451.5156 343.2813,451.2344 343.2813,450.9375 C343.2813,450.6719 343.1719,450.4063 342.9375,450.2344 C342.7656,450.125 342.625,450.0938 342.1719,450.0938 L337.0313,450.0938 C336.5938,450.0938 336.4688,450.1094 336.3125,450.2031 C336.0625,450.3594 335.9063,450.6563 335.9063,450.9375 C335.9063,451.2188 336.0469,451.4688 336.2656,451.6406 C336.4219,451.75 336.6094,451.7813 337.0313,451.7813 L338.75,451.7813 L338.75,458.2969 L337.0313,458.2969 C336.5938,458.2969 336.4688,458.3125 336.3125,458.4219 C336.0625,458.5781 335.9063,458.8594 335.9063,459.1563 C335.9063,459.4063 336.0469,459.6719 336.2656,459.8281 C336.4219,459.9531 336.625,460 337.0313,460 L342.1719,460 C342.9219,460 343.2813,459.7188 343.2813,459.1563 C343.2813,458.875 343.1719,458.625 342.9375,458.4531 C342.7656,458.3281 342.625,458.2969 342.1719,458.2969 L340.4531,458.2969 L340.4531,451.7813 Z " fill="#000000"/><text fill="#000000" font-family="sans-serif" font-size="14" font-style="italic" lengthAdjust="spacing" textLength="84" x="353.5" y="459.8467">EmptyBlock</text><line style="stroke:#181818;stroke-width:0.5;" x1="325.5" x2="439.5" y1="471" y2="471"/><line style="stroke:#181818;stroke-width:0.5;" x1="325.5" x2="439.5" y1="479" y2="479"/></g><!--MD5=[e7969329aebad34cb4c65e60c1606de9]
class EmptyList--><g id="elem_EmptyList"><rect codeLine="16" fill="#F1F1F1" height="48" id="EmptyList" rx="2.5" ry="2.5" style="stroke:#181818;stroke-width:0.5;" width="101" x="476" y="439"/><ellipse cx="491" cy="455" fill="#B4A7E5" rx="11" ry="11" style="stroke:#181818;stroke-width:1.0;"/><path d="M491.9531,451.7813 L493.6719,451.7813 C494.0625,451.7813 494.25,451.75 494.375,451.6719 C494.6406,451.5156 494.7813,451.2344 494.7813,450.9375 C494.7813,450.6719 494.6719,450.4063 494.4375,450.2344 C494.2656,450.125 494.125,450.0938 493.6719,450.0938 L488.5313,450.0938 C488.0938,450.0938 487.9688,450.1094 487.8125,450.2031 C487.5625,450.3594 487.4063,450.6563 487.4063,450.9375 C487.4063,451.2188 487.5469,451.4688 487.7656,451.6406 C487.9219,451.75 488.1094,451.7813 488.5313,451.7813 L490.25,451.7813 L490.25,458.2969 L488.5313,458.2969 C488.0938,458.2969 487.9688,458.3125 487.8125,458.4219 C487.5625,458.5781 487.4063,458.8594 487.4063,459.1563 C487.4063,459.4063 487.5469,459.6719 487.7656,459.8281 C487.9219,459.9531 488.125,460 488.5313,460 L493.6719,460 C494.4219,460 494.7813,459.7188 494.7813,459.1563 C494.7813,458.875 494.6719,458.625 494.4375,458.4531 C494.2656,458.3281 494.125,458.2969 493.6719,458.2969 L491.9531,458.2969 L491.9531,451.7813 Z " fill="#000000"/><text fill="#000000" font-family="sans-serif" font-size="14" font-style="italic" lengthAdjust="spacing" textLength="69" x="505" y="459.8467">EmptyList</text><line style="stroke:#181818;stroke-width:0.5;" x1="477" x2="576" y1="471" y2="471"/><line style="stroke:#181818;stroke-width:0.5;" x1="477" x2="576" y1="479" y2="479"/></g><!--MD5=[3d4177ac58b4411586d067f34e84928f]
class List--><g id="elem_List"><rect codeLine="17" fill="#F1F1F1" height="48" id="List" rx="2.5" ry="2.5" style="stroke:#181818;stroke-width:0.5;" width="56" x="614.5" y="331"/><ellipse cx="629.5" cy="347" fill="#B4A7E5" rx="11" ry="11" style="stroke:#181818;stroke-width:1.0;"/><path d="M630.4531,343.7813 L632.1719,343.7813 C632.5625,343.7813 632.75,343.75 632.875,343.6719 C633.1406,343.5156 633.2813,343.2344 633.2813,342.9375 C633.2813,342.6719 633.1719,342.4063 632.9375,342.2344 C632.7656,342.125 632.625,342.0938 632.1719,342.0938 L627.0313,342.0938 C626.5938,342.0938 626.4688,342.1094 626.3125,342.2031 C626.0625,342.3594 625.9063,342.6563 625.9063,342.9375 C625.9063,343.2188 626.0469,343.4688 626.2656,343.6406 C626.4219,343.75 626.6094,343.7813 627.0313,343.7813 L628.75,343.7813 L628.75,350.2969 L627.0313,350.2969 C626.5938,350.2969 626.4688,350.3125 626.3125,350.4219 C626.0625,350.5781 625.9063,350.8594 625.9063,351.1563 C625.9063,351.4063 626.0469,351.6719 626.2656,351.8281 C626.4219,351.9531 626.625,352 627.0313,352 L632.1719,352 C632.9219,352 633.2813,351.7188 633.2813,351.1563 C633.2813,350.875 633.1719,350.625 632.9375,350.4531 C632.7656,350.3281 632.625,350.2969 632.1719,350.2969 L630.4531,350.2969 L630.4531,343.7813 Z " fill="#000000"/><text fill="#000000" font-family="sans-serif" font-size="14" font-style="italic" lengthAdjust="spacing" textLength="24" x="643.5" y="351.8467">List</text><line style="stroke:#181818;stroke-width:0.5;" x1="615.5" x2="669.5" y1="363" y2="363"/><line style="stroke:#181818;stroke-width:0.5;" x1="615.5" x2="669.5" y1="371" y2="371"/></g><!--MD5=[e9bf4637ac83eb6af140c7019666e1f6]
class Cons--><g id="elem_Cons"><rect codeLine="18" fill="#F1F1F1" height="48" id="Cons" rx="2.5" ry="2.5" style="stroke:#181818;stroke-width:0.5;" width="67" x="612" y="439"/><ellipse cx="627" cy="455" fill="#B4A7E5" rx="11" ry="11" style="stroke:#181818;stroke-width:1.0;"/><path d="M627.9531,451.7813 L629.6719,451.7813 C630.0625,451.7813 630.25,451.75 630.375,451.6719 C630.6406,451.5156 630.7813,451.2344 630.7813,450.9375 C630.7813,450.6719 630.6719,450.4063 630.4375,450.2344 C630.2656,450.125 630.125,450.0938 629.6719,450.0938 L624.5313,450.0938 C624.0938,450.0938 623.9688,450.1094 623.8125,450.2031 C623.5625,450.3594 623.4063,450.6563 623.4063,450.9375 C623.4063,451.2188 623.5469,451.4688 623.7656,451.6406 C623.9219,451.75 624.1094,451.7813 624.5313,451.7813 L626.25,451.7813 L626.25,458.2969 L624.5313,458.2969 C624.0938,458.2969 623.9688,458.3125 623.8125,458.4219 C623.5625,458.5781 623.4063,458.8594 623.4063,459.1563 C623.4063,459.4063 623.5469,459.6719 623.7656,459.8281 C623.9219,459.9531 624.125,460 624.5313,460 L629.6719,460 C630.4219,460 630.7813,459.7188 630.7813,459.1563 C630.7813,458.875 630.6719,458.625 630.4375,458.4531 C630.2656,458.3281 630.125,458.2969 629.6719,458.2969 L627.9531,458.2969 L627.9531,451.7813 Z " fill="#000000"/><text fill="#000000" font-family="sans-serif" font-size="14" font-style="italic" lengthAdjust="spacing" textLength="35" x="641" y="459.8467">Cons</text><line style="stroke:#181818;stroke-width:0.5;" x1="613" x2="678" y1="471" y2="471"/><line style="stroke:#181818;stroke-width:0.5;" x1="613" x2="678" y1="479" y2="479"/></g><!--MD5=[68a0c021ad4fbab63794e91c3c368f48]
class Block--><g id="elem_Block"><rect codeLine="19" fill="#F1F1F1" height="48" id="Block" rx="2.5" ry="2.5" style="stroke:#181818;stroke-width:0.5;" width="71" x="401" y="331"/><ellipse cx="416" cy="347" fill="#B4A7E5" rx="11" ry="11" style="stroke:#181818;stroke-width:1.0;"/><path d="M416.9531,343.7813 L418.6719,343.7813 C419.0625,343.7813 419.25,343.75 419.375,343.6719 C419.6406,343.5156 419.7813,343.2344 419.7813,342.9375 C419.7813,342.6719 419.6719,342.4063 419.4375,342.2344 C419.2656,342.125 419.125,342.0938 418.6719,342.0938 L413.5313,342.0938 C413.0938,342.0938 412.9688,342.1094 412.8125,342.2031 C412.5625,342.3594 412.4063,342.6563 412.4063,342.9375 C412.4063,343.2188 412.5469,343.4688 412.7656,343.6406 C412.9219,343.75 413.1094,343.7813 413.5313,343.7813 L415.25,343.7813 L415.25,350.2969 L413.5313,350.2969 C413.0938,350.2969 412.9688,350.3125 412.8125,350.4219 C412.5625,350.5781 412.4063,350.8594 412.4063,351.1563 C412.4063,351.4063 412.5469,351.6719 412.7656,351.8281 C412.9219,351.9531 413.125,352 413.5313,352 L418.6719,352 C419.4219,352 419.7813,351.7188 419.7813,351.1563 C419.7813,350.875 419.6719,350.625 419.4375,350.4531 C419.2656,350.3281 419.125,350.2969 418.6719,350.2969 L416.9531,350.2969 L416.9531,343.7813 Z " fill="#000000"/><text fill="#000000" font-family="sans-serif" font-size="14" font-style="italic" lengthAdjust="spacing" textLength="39" x="430" y="351.8467">Block</text><line style="stroke:#181818;stroke-width:0.5;" x1="402" x2="471" y1="363" y2="363"/><line style="stroke:#181818;stroke-width:0.5;" x1="402" x2="471" y1="371" y2="371"/></g><!--MD5=[064889823136230ed73fb5238d2f9216]
class Tuple--><g id="elem_Tuple"><rect codeLine="20" fill="#F1F1F1" height="48" id="Tuple" rx="2.5" ry="2.5" style="stroke:#181818;stroke-width:0.5;" width="72" x="507.5" y="331"/><ellipse cx="522.5" cy="347" fill="#B4A7E5" rx="11" ry="11" style="stroke:#181818;stroke-width:1.0;"/><path d="M523.4531,343.7813 L525.1719,343.7813 C525.5625,343.7813 525.75,343.75 525.875,343.6719 C526.1406,343.5156 526.2813,343.2344 526.2813,342.9375 C526.2813,342.6719 526.1719,342.4063 525.9375,342.2344 C525.7656,342.125 525.625,342.0938 525.1719,342.0938 L520.0313,342.0938 C519.5938,342.0938 519.4688,342.1094 519.3125,342.2031 C519.0625,342.3594 518.9063,342.6563 518.9063,342.9375 C518.9063,343.2188 519.0469,343.4688 519.2656,343.6406 C519.4219,343.75 519.6094,343.7813 520.0313,343.7813 L521.75,343.7813 L521.75,350.2969 L520.0313,350.2969 C519.5938,350.2969 519.4688,350.3125 519.3125,350.4219 C519.0625,350.5781 518.9063,350.8594 518.9063,351.1563 C518.9063,351.4063 519.0469,351.6719 519.2656,351.8281 C519.4219,351.9531 519.625,352 520.0313,352 L525.1719,352 C525.9219,352 526.2813,351.7188 526.2813,351.1563 C526.2813,350.875 526.1719,350.625 525.9375,350.4531 C525.7656,350.3281 525.625,350.2969 525.1719,350.2969 L523.4531,350.2969 L523.4531,343.7813 Z " fill="#000000"/><text fill="#000000" font-family="sans-serif" font-size="14" font-style="italic" lengthAdjust="spacing" textLength="40" x="536.5" y="351.8467">Tuple</text><line style="stroke:#181818;stroke-width:0.5;" x1="508.5" x2="578.5" y1="363" y2="363"/><line style="stroke:#181818;stroke-width:0.5;" x1="508.5" x2="578.5" y1="371" y2="371"/></g><!--MD5=[f626f12429d76bc694cd64f7f069082d]
reverse link Term to Struct--><g id="link_Term_Struct"><path codeLine="22" d="M450.472,69.753 C464.756,84.744 480.735,101.514 493.278,114.678 " fill="none" id="Term-backto-Struct" style="stroke:#181818;stroke-width:1.0;"/><polygon fill="none" points="445.144,74.309,436.415,55,455.28,64.651,445.144,74.309" style="stroke:#181818;stroke-width:1.0;"/></g><!--MD5=[22dcc2a6458fba43153ab5c044b6d0f2]
reverse link Term to Constant--><g id="link_Term_Constant"><path codeLine="23" d="M375.461,69.28 C359.638,84.391 341.852,101.375 327.922,114.678 " fill="none" id="Term-backto-Constant" style="stroke:#181818;stroke-width:1.0;"/><polygon fill="none" points="371.116,63.751,390.415,55,380.785,73.876,371.116,63.751" style="stroke:#181818;stroke-width:1.0;"/></g><!--MD5=[6348e5cd8d5bc8163d36f1359c5d0625]
reverse link Term to Var--><g id="link_Term_Var"><path codeLine="24" d="M414.5,75.024 C414.5,88.579 414.5,103.038 414.5,114.678 " fill="none" id="Term-backto-Var" style="stroke:#181818;stroke-width:1.0;"/><polygon fill="none" points="407.5,75,414.5,55,421.5,75,407.5,75" style="stroke:#181818;stroke-width:1.0;"/></g><!--MD5=[70225964948051ed3e9096d211e8a754]
reverse link Constant to Numeric--><g id="link_Constant_Numeric"><path codeLine="26" d="M255.322,174.979 C233.65,190.713 208.664,208.853 189.37,222.862 " fill="none" id="Constant-backto-Numeric" style="stroke:#181818;stroke-width:1.0;"/><polygon fill="none" points="251.523,169.086,271.82,163,259.748,180.415,251.523,169.086" style="stroke:#181818;stroke-width:1.0;"/></g><!--MD5=[904172204236467fd977e5a86c11fa2e]
reverse link Constant to Atom--><g id="link_Constant_Atom"><path codeLine="27" d="M304.718,183.024 C305.101,196.579 305.511,211.038 305.84,222.678 " fill="none" id="Constant-backto-Atom" style="stroke:#181818;stroke-width:1.0;"/><polygon fill="none" points="297.72,183.19,304.151,163,311.714,182.794,297.72,183.19" style="stroke:#181818;stroke-width:1.0;"/></g><!--MD5=[17d2d3c8e42a151c98c74cb7a0afd032]
reverse link Numeric to Real--><g id="link_Numeric_Real"><path codeLine="29" d="M157.5,291.024 C157.5,304.579 157.5,319.038 157.5,330.678 " fill="none" id="Numeric-backto-Real" style="stroke:#181818;stroke-width:1.0;"/><polygon fill="none" points="150.5,291,157.5,271,164.5,291,150.5,291" style="stroke:#181818;stroke-width:1.0;"/></g><!--MD5=[2b9b92e887eeff1b264561e6aba3c4bf]
reverse link Numeric to Integer--><g id="link_Numeric_Integer"><path codeLine="30" d="M119.165,285.28 C103.6267,300.391 86.1614,317.375 72.4816,330.678 " fill="none" id="Numeric-backto-Integer" style="stroke:#181818;stroke-width:1.0;"/><polygon fill="none" points="114.63,279.926,133.849,271,124.391,289.962,114.63,279.926" style="stroke:#181818;stroke-width:1.0;"/></g><!--MD5=[71ce62bb6f3323542defcc754b11eb47]
reverse link Struct to Atom--><g id="link_Struct_Atom"><path codeLine="32" d="M460.086,167.206 C451.507,171.463 442.757,175.833 434.5,180 C403.028,195.883 367.394,214.292 341.73,227.626 " fill="none" id="Struct-backto-Atom" style="stroke:#181818;stroke-width:1.0;"/><polygon fill="none" points="457.303,160.773,478.335,158.185,463.507,173.323,457.303,160.773" style="stroke:#181818;stroke-width:1.0;"/></g><!--MD5=[31790569203b5285c66d4dd61d3d15cf]
reverse link Struct to Recursive--><g id="link_Struct_Recursive"><path codeLine="33" d="M510.629,183.024 C509.095,196.579 507.458,211.038 506.14,222.678 " fill="none" id="Struct-backto-Recursive" style="stroke:#181818;stroke-width:1.0;"/><polygon fill="none" points="503.691,182.086,512.896,163,517.602,183.661,503.691,182.086" style="stroke:#181818;stroke-width:1.0;"/></g><!--MD5=[bbce5c6e594f9519b0e03f998c702cd7]
reverse link Struct to Indicator--><g id="link_Struct_Indicator"><path codeLine="34" d="M565.902,175.386 C567.811,176.92 569.684,178.461 571.5,180 C587.203,193.302 603.569,209.649 616.075,222.746 " fill="none" id="Struct-backto-Indicator" style="stroke:#181818;stroke-width:1.0;"/><polygon fill="none" points="561.328,180.702,549.643,163.026,569.801,169.557,561.328,180.702" style="stroke:#181818;stroke-width:1.0;"/></g><!--MD5=[8acbf019754d4f584dfbfda41989f9f3]
reverse link Recursive to List--><g id="link_Recursive_List"><path codeLine="36" d="M549.881,283.369 C571.205,299.631 595.806,318.392 614.293,332.489 " fill="none" id="Recursive-backto-List" style="stroke:#181818;stroke-width:1.0;"/><polygon fill="none" points="545.32,288.694,533.661,271,553.809,277.562,545.32,288.694" style="stroke:#181818;stroke-width:1.0;"/></g><!--MD5=[1ba13b162810dce5771118a04585de54]
reverse link Recursive to Tuple--><g id="link_Recursive_Tuple"><path codeLine="37" d="M519.371,290.057 C524.59,303.889 530.202,318.761 534.699,330.678 " fill="none" id="Recursive-backto-Tuple" style="stroke:#181818;stroke-width:1.0;"/><polygon fill="none" points="512.691,292.184,512.179,271,525.79,287.241,512.691,292.184" style="stroke:#181818;stroke-width:1.0;"/></g><!--MD5=[14c43ffa62f34001d738944f7d3010b4]
reverse link Recursive to Block--><g id="link_Recursive_Block"><path codeLine="38" d="M478.132,288.134 C469.052,302.499 459.124,318.207 451.241,330.678 " fill="none" id="Recursive-backto-Block" style="stroke:#181818;stroke-width:1.0;"/><polygon fill="none" points="472.359,284.166,488.962,271,484.193,291.646,472.359,284.166" style="stroke:#181818;stroke-width:1.0;"/></g><!--MD5=[5635cc4b99654f3c5c549950d77dd0db]
reverse link Atom to Truth--><g id="link_Atom_Truth"><path codeLine="40" d="M316.132,290.54 C319.232,304.235 322.553,318.9 325.22,330.678 " fill="none" id="Atom-backto-Truth" style="stroke:#181818;stroke-width:1.0;"/><polygon fill="none" points="309.297,292.052,311.708,271,322.951,288.961,309.297,292.052" style="stroke:#181818;stroke-width:1.0;"/></g><!--MD5=[898712309eb8fbecc3952bd38dd229e1]
reverse link Atom to Empty--><g id="link_Atom_Empty"><path codeLine="41" d="M288.817,289.833 C284.18,302.79 279.829,317.273 277.5,331 C263.945,410.89 263.22,442.495 306.5,511 C315.779,525.6863 330.061,538.1773 343.751,547.8329 " fill="none" id="Atom-backto-Empty" style="stroke:#181818;stroke-width:1.0;"/><polygon fill="none" points="282.338,287.178,296.089,271.056,295.394,292.234,282.338,287.178" style="stroke:#181818;stroke-width:1.0;"/></g><!--MD5=[fcda1a5f81290cc689640184bf09b76b]
link EmptyList to Empty--><g id="link_EmptyList_Empty"><path codeLine="43" d="M495.254,487 C476.326,500.9337 451.795,518.9914 430.45,534.7038 " fill="none" id="EmptyList-to-Empty" style="stroke:#181818;stroke-width:1.0;"/><polygon fill="none" points="434.439,540.4594,414.182,546.6784,426.139,529.1847,434.439,540.4594" style="stroke:#181818;stroke-width:1.0;"/></g><!--MD5=[46028acb7ba302d8b1cec11676e9bd8b]
link EmptyBlock to Empty--><g id="link_EmptyBlock_Empty"><path codeLine="44" d="M382.5,487 C382.5,498.5885 382.5,513.0294 382.5,526.6013 " fill="none" id="EmptyBlock-to-Empty" style="stroke:#181818;stroke-width:1.0;"/><polygon fill="none" points="389.5,526.6785,382.5,546.6784,375.5,526.6784,389.5,526.6785" style="stroke:#181818;stroke-width:1.0;"/></g><!--MD5=[b5af1b3c3de85c746cad2571a0bb747a]
reverse link List to EmptyList--><g id="link_List_EmptyList"><path codeLine="46" d="M602.476,392.573 C585.749,407.859 566.807,425.167 552.022,438.678 " fill="none" id="List-backto-EmptyList" style="stroke:#181818;stroke-width:1.0;"/><polygon fill="none" points="597.843,387.324,617.33,379,607.288,397.659,597.843,387.324" style="stroke:#181818;stroke-width:1.0;"/></g><!--MD5=[86931e52732ee1979ef73de364a25d1a]
reverse link List to Cons--><g id="link_List_Cons"><path codeLine="47" d="M643.718,399.024 C644.101,412.579 644.511,427.038 644.84,438.678 " fill="none" id="List-backto-Cons" style="stroke:#181818;stroke-width:1.0;"/><polygon fill="none" points="636.72,399.19,643.151,379,650.714,398.794,636.72,399.19" style="stroke:#181818;stroke-width:1.0;"/></g><!--MD5=[fb0d7637cb380e79f9793bebd5d239da]
reverse link Block to EmptyBlock--><g id="link_Block_EmptyBlock"><path codeLine="48" d="M415.566,397.094 C408.381,411.196 400.593,426.484 394.381,438.678 " fill="none" id="Block-backto-EmptyBlock" style="stroke:#181818;stroke-width:1.0;"/><polygon fill="none" points="409.467,393.644,424.783,379,421.942,399.999,409.467,393.644" style="stroke:#181818;stroke-width:1.0;"/></g><!--MD5=[b7702a11f4d6cfaf0543be0d76476975]
reverse link Struct to Clause--><g id="link_Struct_Clause"><path codeLine="56" d="M572.913,142.895 C611.759,147.021 662.99,156.836 702.5,180 C720.265,190.415 735.423,208.2 745.783,222.685 " fill="none" id="Struct-backto-Clause" style="stroke:#181818;stroke-width:1.0;"/><polygon fill="none" points="572.076,149.849,552.759,141.14,573.291,135.902,572.076,149.849" style="stroke:#181818;stroke-width:1.0;"/></g><!--MD5=[f3bf6ee72f5e1a12bb542db493abdab0]
reverse link Clause to Rule--><g id="link_Clause_Rule"><path codeLine="57" d="M756.847,291.024 C755.696,304.579 754.468,319.038 753.48,330.678 " fill="none" id="Clause-backto-Rule" style="stroke:#181818;stroke-width:1.0;"/><polygon fill="none" points="749.88,290.336,758.547,271,763.83,291.521,749.88,290.336" style="stroke:#181818;stroke-width:1.0;"/></g><!--MD5=[528afe65e613338255b9ddfd2453915a]
reverse link Clause to Directive--><g id="link_Clause_Directive"><path codeLine="58" d="M797.78,285.28 C812.891,300.391 829.875,317.375 843.178,330.678 " fill="none" id="Clause-backto-Directive" style="stroke:#181818;stroke-width:1.0;"/><polygon fill="none" points="792.693,290.092,783.5,271,802.592,280.193,792.693,290.092" style="stroke:#181818;stroke-width:1.0;"/></g><!--MD5=[20e1b802e026257bc052a955cce88ea7]
reverse link Rule to Fact--><g id="link_Rule_Fact"><path codeLine="59" d="M751.5,399.024 C751.5,412.579 751.5,427.038 751.5,438.678 " fill="none" id="Rule-backto-Fact" style="stroke:#181818;stroke-width:1.0;"/><polygon fill="none" points="744.5,399,751.5,379,758.5,399,744.5,399" style="stroke:#181818;stroke-width:1.0;"/></g><!--MD5=[8f4447a0d00fd3142d6a6c953d47304e]
@startuml
skinparam shadowing false

interface Term
interface Constant
interface Var
interface Struct
interface Numeric
interface Integer
interface Real
interface Atom
interface Truth
interface Indicator
interface Recursive
interface Empty
interface EmptyBlock
interface EmptyList
interface List
interface Cons
interface Block
interface Tuple

Term <|-down- Struct
Term <|-down- Constant
Term <|-down- Var

Constant <|-down- Numeric
Constant <|-down- Atom

Numeric <|-down- Real
Numeric <|-down- Integer

Struct <|-down- Atom
Struct <|-down- Recursive
Struct <|-down- Indicator

Recursive <|-down- List
Recursive <|-down- Tuple
Recursive <|-down- Block

Atom <|-down- Truth
Atom <|-down- Empty

Empty <|-up- EmptyList
Empty <|-up- EmptyBlock

List <|-down- EmptyList
List <|-down- Cons
Block <|-down- EmptyBlock

package clauses <<Rectangle>> {

    interface Clause
    interface Rule
    interface Directive
    interface Fact
    Struct <|-down- Clause
    Clause <|-down- Rule
    Clause <|-down- Directive
    Rule <|-down- Fact

}
@enduml

PlantUML version 1.2022.3beta2(Unknown compile time)
(GPL source distribution)
Java Runtime: Java(TM) SE Runtime Environment
JVM: Java HotSpot(TM) 64-Bit Server VM
Default Encoding: UTF-8
Language: en
Country: US
--></g></svg>